<svg xmlns="http://www.w3.org/2000/svg"><symbol id="oculus" viewBox="0 0 105.25 107.69"><path d="M52.623 0C18.358 0 0 26.719 0 53.847s15.707 53.847 52.623 53.847c34.268 0 52.622-26.719 52.622-53.847S89.541 0 52.623 0zm0 99.364c-30.882 0-44.02-22.825-44.02-45.518 0-22.694 15.358-45.507 44.02-45.507 30.884 0 44.02 22.812 44.02 45.507 0 22.693-15.354 45.518-44.02 45.518zm17.395-44.77c-.326 8.747-6.371 17.705-17.395 17.705-11.876 0-17.114-8.958-17.397-17.705h34.792zm19.686 0c-.331 18.878-13.242 37.903-37.081 37.903-25.679 0-36.798-19.025-37.083-37.903h13.083c.282 12.135 7.493 24.278 24 24.278 15.324 0 23.669-12.144 23.998-24.278h13.083zm-73.689-7.13c2.544-16.849 15.149-32.268 36.608-32.268 23.12 0 34.435 15.419 36.67 32.268H16.015z"/></symbol></svg>